<svg width="24" height="24" xmlns="http://www.w3.org/2000/svg">
														<rect width="24" height="24" rx="12" fill="#121214"></rect>
														<path fill="rgba(255, 255, 255, 0.98)" d="m14.902 9.938-.084-.114C19.1 6.365 18.625 5.85 18.625 5.85a8.851 8.851 0 0 0-1.344-1.2c-.671-.486-1.4-.886-2.183-1.144-3.248-1.2-7.112-.257-9.436 2.344-3.107 3.401-3.163 8.803-.028 12.261 3.304 3.63 8.932 3.859 12.487.515l.056-.057.056-.058.028-.028a.757.757 0 0 0 .14-.172c1.008-1.315-.504-4.887-3.5-8.374zm2.743 7.717c-.224.229-1.176.257-2.715-.572-1.428-.771-3.024-2.086-4.536-3.687-.252.2 3.948-3.172 3.752-3 1.316 1.543 2.435 3.229 3.023 4.63.7 1.629.672 2.429.476 2.629z"></path>
													</svg>