<svg width="56" height="56" version="1.1" id="Layer_1" xmlns="http://www.w3.org/2000/svg" xmlns:xlink="http://www.w3.org/1999/xlink" x="0px" y="0px" viewBox="0 0 321.016 321.016" style="enable-background:new 0 0 321.016 321.016;" xml:space="preserve"><g><g><g><path d="M304.124,105.733h-9.557v-77.81c0-4.971-4.029-9-9-9H35.448c-4.971,0-9,4.029-9,9v77.81h-9.557 C7.577,105.733,0,113.311,0,122.625v150.756c0,15.832,12.88,28.712,28.712,28.712h263.592c15.832,0,28.712-12.88,28.712-28.712 V122.625C321.016,113.311,313.438,105.733,304.124,105.733z M44.449,133.175V36.924h232.118v96.251 c0,0.3,0.016,0.596,0.045,0.888l-80.232,65.258c-20.785,16.906-50.959,16.906-71.744,0l-80.232-65.258 C44.433,133.771,44.449,133.475,44.449,133.175z M18,271.98V135.789l90.722,73.79L18,271.98z M32.15,284.094l92.151-63.384 c11.218,6.177,23.711,9.27,36.207,9.27s24.989-3.093,36.207-9.27l92.151,63.384H32.15z M303.016,271.98l-90.722-62.4 l90.722-73.79V271.98z" fill="#000000" style="fill: rgb(89, 89, 89);"></path><path d="M84.001,83.575h153.014c4.971,0,9-4.029,9-9s-4.029-9-9-9H84.001c-4.971,0-9,4.029-9,9S79.03,83.575,84.001,83.575z" fill="#000000" style="fill: rgb(89, 89, 89);"></path><path d="M84.001,117.273h153.014c4.971,0,9-4.029,9-9c0-4.971-4.029-9-9-9H84.001c-4.971,0-9,4.029-9,9 C75.001,113.244,79.03,117.273,84.001,117.273z" fill="#000000" style="fill: rgb(89, 89, 89);"></path><path d="M246.015,141.972c0-4.971-4.029-9-9-9H84.001c-4.971,0-9,4.029-9,9c0,4.971,4.029,9,9,9h153.014 C241.986,150.972,246.015,146.943,246.015,141.972z" fill="#000000" style="fill: rgb(89, 89, 89);"></path></g></g></g></svg>