<svg width="65" version="1.1" id="Layer_1" xmlns="http://www.w3.org/2000/svg" xmlns:xlink="http://www.w3.org/1999/xlink" x="0px" y="0px" viewBox="0 0 511.998 511.998" style="enable-background:new 0 0 511.998 511.998;" xml:space="preserve"><g><g><path d="M204.911,230.413c-0.461-0.461-0.972-0.881-1.521-1.25c-0.54-0.36-1.12-0.671-1.729-0.921 c-0.601-0.24-1.23-0.44-1.87-0.56c-1.29-0.26-2.62-0.26-3.91,0c-0.64,0.12-1.27,0.32-1.87,0.56c-0.6,0.25-1.18,0.56-1.72,0.921 c-0.55,0.37-1.06,0.789-1.52,1.25c-1.87,1.86-2.93,4.44-2.93,7.07s1.06,5.21,2.93,7.07c0.46,0.46,0.971,0.88,1.52,1.24 c0.54,0.36,1.12,0.67,1.72,0.92c0.6,0.25,1.23,0.44,1.87,0.57c0.65,0.13,1.31,0.2,1.96,0.2s1.31-0.07,1.95-0.2 c0.64-0.13,1.27-0.32,1.87-0.57c0.609-0.25,1.189-0.56,1.729-0.92c0.55-0.36,1.061-0.78,1.521-1.24 c1.859-1.86,2.93-4.44,2.93-7.07S206.771,232.273,204.911,230.413z"/></g></g><g><g><path d="M296.19,277.743c-0.13-0.64-0.32-1.271-0.57-1.87c-0.25-0.61-0.56-1.19-0.92-1.73c-0.36-0.55-0.78-1.06-1.24-1.52 c-0.47-0.46-0.98-0.88-1.52-1.24c-0.55-0.36-1.13-0.67-1.73-0.92c-0.601-0.25-1.23-0.44-1.87-0.57c-1.29-0.26-2.62-0.26-3.91,0 c-0.64,0.13-1.26,0.32-1.87,0.57c-0.6,0.25-1.18,0.56-1.729,0.92c-0.54,0.36-1.061,0.78-1.521,1.24 c-0.46,0.46-0.88,0.97-1.24,1.52c-0.359,0.54-0.67,1.12-0.92,1.73c-0.25,0.6-0.439,1.23-0.569,1.87s-0.191,1.3-0.191,1.95 c0,2.64,1.061,5.21,2.92,7.07c0.46,0.46,0.98,0.88,1.521,1.25c0.55,0.36,1.13,0.67,1.729,0.92c0.61,0.24,1.23,0.44,1.87,0.56 c0.65,0.13,1.311,0.2,1.96,0.2c0.65,0,1.3-0.07,1.95-0.2c0.64-0.12,1.27-0.32,1.87-0.56c0.6-0.25,1.18-0.56,1.73-0.92 c0.54-0.37,1.051-0.79,1.52-1.25c1.859-1.86,2.93-4.43,2.93-7.07C296.39,279.043,296.32,278.384,296.19,277.743z"/></g></g><g><g><path d="M506.602,277.251c-0.147-0.241-0.298-0.48-0.453-0.718c-0.159-0.244-0.323-0.485-0.489-0.726 c-0.009-0.013-0.062-0.09-0.071-0.103c-0.232-0.335-0.471-0.668-0.707-0.985c-0.204-0.276-0.409-0.55-0.622-0.821 c-0.271-0.344-0.553-0.684-0.826-1.006c-0.292-0.347-0.591-0.69-0.896-1.029c-0.341-0.376-0.685-0.749-1.027-1.1 c-0.221-0.226-0.447-0.449-0.676-0.671l-0.098-0.095c-0.26-0.254-0.523-0.506-0.776-0.741c-0.258-0.24-0.52-0.478-0.789-0.716 c-0.092-0.084-0.184-0.167-0.277-0.25c-0.116-0.102-0.234-0.2-0.355-0.296c-11.142-9.509-27.918-14.854-45.58-19.925 c-4.146-1.191-23.263-9.633-50.807-22.204c2.399-3.858,1.933-8.992-1.418-12.343c-3.906-3.904-10.236-3.904-14.143,0l-3.572,3.572 c-9.875-4.544-20.461-9.438-31.556-14.587c3.39-3.929,3.229-9.863-0.499-13.59c-3.904-3.905-10.234-3.905-14.143-0.001 l-4.632,4.632c-10.225-4.761-20.748-9.673-31.424-14.667l2.431-2.431c3.905-3.905,3.905-10.237,0-14.143 c-3.906-3.905-10.236-3.905-14.143,0l-7.553,7.553c-37.855-17.745-76.51-35.978-109.702-51.707 c-2.898-1.843-6.145-2.813-9.451-2.813c-5.56,0-10.889,2.685-14.256,7.181c-0.063,0.084-0.125,0.169-0.185,0.255 c-9.787,13.963-12.652,31.357-7.86,47.722c1.36,4.645,3.302,9.015,5.722,13.057c-6.532,4.577-18.451,11.596-27.423,11.596 c-9.225,0-18.988-1.776-28.227-5.133c-9.257-3.373-13.278-13.098-17.167-22.503c-3.646-8.816-8.183-19.789-19.538-19.789 c-7.467,0-14.644,5.076-24.771,17.52c-0.033,0.04-0.066,0.081-0.099,0.123c-0.432,0.548-0.86,1.108-1.283,1.68 c-0.808,1.091-1.599,2.225-2.374,3.397c-0.037,0.056-0.075,0.109-0.112,0.166c-0.061,0.092-0.119,0.189-0.18,0.281 c-0.747,1.145-1.48,2.324-2.193,3.541c-0.017,0.029-0.034,0.06-0.051,0.089c-0.368,0.63-0.732,1.267-1.09,1.915 c-0.75,1.357-1.48,2.753-2.187,4.188c-0.001,0.002-0.002,0.004-0.003,0.006C7.784,203.519,1.369,237.132,0.005,280.539 c-0.003,0.081-0.001,0.163-0.001,0.244c0,0.024-0.004,0.047-0.004,0.07c0,21.786,0.326,42.315,0.564,57.304l0.133,8.496 c0.556,37.76,22.731,40.887,47.382,40.887c1.925,0.005,28.005,0.76,61.023,1.715c89.423,2.586,255.871,7.401,289.086,7.402 c0.003,0,0.002,0,0.004,0c39.711,0,83.478-34.049,102.895-67.048c0.003-0.004,0.006-0.01,0.01-0.016 c0.407-0.695,0.804-1.388,1.158-2.026l0.096-0.174c0.383-0.688,0.753-1.375,1.108-2.054l0.056-0.107 c0.001-0.001,0.05-0.095,0.051-0.097c0.345-0.661,0.679-1.321,0.989-1.955l0.152-0.309c0.308-0.633,0.605-1.264,0.898-1.902 l0.162-0.355c0.273-0.607,0.539-1.212,0.815-1.864l0.159-0.376c0.247-0.592,0.484-1.183,0.732-1.82l0.087-0.223 c2.861-6.502,4.438-13.773,4.438-20.477C512,286.118,508.81,280.191,506.602,277.251z M387.329,241.067 c23.498,10.741,42.548,19.26,52.868,23.495v30.259l-13.036-5.355l-62.541-25.69L387.329,241.067z M336.435,217.587 c10.846,5.038,21.435,9.94,31.509,14.581l-23.372,23.372l-32.67-13.42L336.435,217.587z M285.72,193.928 c10.413,4.876,20.957,9.804,31.413,14.677l-25.28,25.28l-32.67-13.42L285.72,193.928z M163.049,136.139 c11.439,5.421,54.272,25.702,103.413,48.761l-27.329,27.329l-51.34-21.089c-0.007-0.003-0.014-0.007-0.021-0.01l-7.866-3.231 c-10.07-4.172-17.6-12.555-20.664-23.021C156.378,155.1,157.774,144.751,163.049,136.139z M39.27,185.225 c0.291-0.509,0.585-1.01,0.882-1.501c0.079-0.131,0.157-0.266,0.237-0.396c0.367-0.597,0.738-1.18,1.113-1.749 c0.096-0.146,0.194-0.287,0.29-0.431c0.296-0.44,0.594-0.873,0.895-1.296c0.113-0.159,0.225-0.318,0.339-0.474 c0.387-0.532,0.776-1.054,1.17-1.556c0.003-0.005,0.007-0.009,0.01-0.014c2.24-2.75,4.056-4.766,5.505-6.246 c0.013-0.013,0.028-0.029,0.04-0.042c0.291-0.297,0.567-0.572,0.829-0.826c0.524-0.51,0.99-0.938,1.4-1.297 c0.828,1.743,1.739,3.945,2.489,5.76c4.489,10.857,11.274,27.265,28.811,33.655c11.411,4.147,23.537,6.339,35.065,6.339 c2.082,0,4.177-0.197,6.263-0.525c12.999-2.047,25.63-9.762,32.396-14.511l11.19,4.597 c-14.681,16.571-35.714,26.177-58.275,26.177c-30.798,0-58.127-17.663-70.815-45.37C39.159,185.421,39.215,185.324,39.27,185.225z M20.182,285.66c-0.009-0.191-0.02-0.376-0.029-0.567c-0.022-0.496-0.033-0.996-0.053-1.493c-0.035-0.911-0.073-1.822-0.094-2.737 c0.93-29.045,4.15-53.104,9.604-71.861c6.606,9.467,14.863,17.743,24.509,24.444c16.43,11.413,35.726,17.446,55.802,17.446 c30.693,0,59.127-14.151,77.62-38.229l201.115,82.611l48.738,20.02c-0.448,0.26-0.897,0.515-1.345,0.767 c-0.33,0.183-0.66,0.374-0.99,0.555c-0.636,0.35-1.271,0.686-1.906,1.02c-0.26,0.137-0.521,0.28-0.781,0.415 c-1.794,0.927-3.584,1.79-5.365,2.59c-0.278,0.125-0.555,0.24-0.833,0.361c-0.608,0.266-1.216,0.532-1.821,0.783 c-0.342,0.141-0.681,0.273-1.022,0.41c-0.54,0.217-1.081,0.434-1.619,0.638c-0.365,0.138-0.727,0.268-1.09,0.401 c-0.511,0.187-1.022,0.372-1.53,0.548c-0.376,0.129-0.749,0.252-1.123,0.375c-0.494,0.163-0.986,0.322-1.477,0.474 c-0.379,0.117-0.756,0.229-1.133,0.339c-0.483,0.141-0.964,0.278-1.444,0.409c-0.376,0.102-0.751,0.201-1.126,0.297 c-0.478,0.122-0.953,0.237-1.427,0.348c-0.371,0.087-0.741,0.172-1.109,0.252c-0.475,0.103-0.947,0.197-1.419,0.289 c-0.36,0.07-0.72,0.141-1.077,0.204c-0.479,0.085-0.953,0.158-1.427,0.231c-0.345,0.053-0.69,0.109-1.032,0.155 c-0.491,0.067-0.977,0.12-1.462,0.173c-0.317,0.035-0.637,0.076-0.952,0.105c-0.533,0.049-1.059,0.083-1.586,0.116 c-0.261,0.016-0.526,0.041-0.785,0.053c-0.782,0.037-1.557,0.058-2.322,0.058c-18.303,0-77.796-1.486-142.375-3.25l10.592-10.592 c3.905-3.905,3.905-10.237,0-14.143c-3.906-3.905-10.236-3.905-14.143,0L228.29,323.65c-12.104-0.337-24.206-0.678-36.081-1.014 l56.975-56.975c3.905-3.905,3.905-10.237,0-14.142c-3.906-3.905-10.236-3.905-14.143,0l-70.332,70.333 c-12.633-0.362-24.755-0.711-36.058-1.038l49.209-49.209c3.905-3.905,3.905-10.237,0-14.142c-3.906-3.905-10.236-3.905-14.143,0 l-62.555,62.556c-34.462-0.996-51.283-1.477-53.077-1.477c-1.118,0-2.235-0.006-3.341-0.023 c-7.746-0.116-14.994-0.738-18.703-3.268c-1.404-0.957-5.132-3.501-5.343-17.889c0-0.001,0-0.002,0-0.003 c-0.038-2.536-0.182-5.244-0.334-8.11C20.301,288.069,20.239,286.866,20.182,285.66z M486.612,314.346 c-0.252,0.515-0.514,1.029-0.772,1.526l-0.101,0.193c-0.281,0.539-0.573,1.078-0.872,1.618c-0.03,0.053-0.059,0.106-0.088,0.16 l0.024-0.046c-0.315,0.569-0.642,1.138-0.976,1.707c-0.011,0.018-0.028,0.048-0.046,0.079 c-16.242,27.571-54.497,57.073-85.593,57.073c-32.927-0.001-199.188-4.811-288.509-7.394c-40.234-1.164-59.661-1.723-61.598-1.723 c-8.944,0-17.806-0.399-22.045-3.291c-1.403-0.957-5.132-3.501-5.343-17.892l-0.133-8.518c-0.016-0.967-0.031-1.959-0.047-2.971 c0.006,0.002,0.011,0.004,0.017,0.006c0.041,0.016,0.083,0.03,0.124,0.046c0.52,0.204,1.047,0.397,1.581,0.579 c0.192,0.066,0.387,0.126,0.58,0.189c0.393,0.128,0.789,0.251,1.189,0.368c0.219,0.064,0.439,0.126,0.66,0.187 c0.396,0.109,0.796,0.212,1.198,0.311c0.211,0.052,0.421,0.105,0.633,0.155c0.49,0.114,0.984,0.219,1.482,0.32 c0.124,0.025,0.246,0.053,0.371,0.078c0.618,0.12,1.243,0.23,1.873,0.331c0.2,0.032,0.403,0.06,0.605,0.091 c0.443,0.067,0.888,0.132,1.336,0.191c0.244,0.032,0.49,0.062,0.736,0.092c0.422,0.051,0.845,0.099,1.271,0.143 c0.244,0.025,0.488,0.051,0.734,0.075c0.469,0.045,0.942,0.085,1.416,0.122c0.197,0.016,0.392,0.034,0.589,0.048 c0.664,0.049,1.333,0.091,2.005,0.128c0.161,0.009,0.323,0.015,0.484,0.023c0.526,0.026,1.053,0.051,1.583,0.07 c0.248,0.009,0.498,0.017,0.747,0.025c0.455,0.015,0.911,0.028,1.369,0.039c0.258,0.006,0.515,0.012,0.774,0.017 c0.48,0.009,0.961,0.016,1.444,0.022c0.221,0.003,0.44,0.006,0.661,0.008c0.698,0.006,1.398,0.009,2.101,0.009 c1.924,0.005,27.979,0.759,60.968,1.713c89.439,2.588,255.92,7.404,289.143,7.404c2.582,0,5.209-0.148,7.873-0.44 c18.652-2.045,39.122-11.164,58.502-26.191c2.468-1.914,3.879-4.851,3.872-7.924c-0.001-0.439-0.031-0.881-0.091-1.323 c-0.479-3.537-2.809-6.549-6.109-7.905l-2.038-0.837v-31.894c10.372,3.367,19.803,7.232,25.544,12.224 c0.049,0.043,0.099,0.085,0.148,0.127c0.15,0.132,0.299,0.267,0.459,0.417c0.144,0.132,0.282,0.267,0.422,0.402l0.117,0.114 c0.095,0.092,0.19,0.184,0.298,0.294c0.179,0.183,0.349,0.371,0.519,0.559c0.148,0.163,0.291,0.33,0.445,0.512 c0.132,0.157,0.265,0.313,0.391,0.473c0.093,0.118,0.181,0.238,0.277,0.369c0.117,0.157,0.23,0.315,0.358,0.501l0.217,0.318 c0.117,0.181,0.228,0.366,0.345,0.564c0.341,0.573,0.66,0.986,0.897,1.276c0.014,0.019,1.364,1.94,1.364,6.559 c0,3.992-0.975,8.404-2.745,12.424c-0.153,0.348-0.248,0.585-0.287,0.686l-0.147,0.38c-0.171,0.439-0.348,0.879-0.526,1.307 l-0.134,0.317c-0.202,0.474-0.409,0.949-0.603,1.377l-0.137,0.299c-0.227,0.495-0.462,0.991-0.663,1.407l-0.097,0.196l8.984,4.392 L486.612,314.346z"/></g></g></svg>